<?xml version="1.0" encoding="UTF-8"?>
<!DOCTYPE svg PUBLIC "-//W3C//DTD SVG 1.1//EN" "http://www.w3.org/Graphics/SVG/1.1/DTD/svg11.dtd">
<svg xmlns="http://www.w3.org/2000/svg" version="1.1" width="2000px" height="2000px" style="shape-rendering:geometricPrecision; text-rendering:geometricPrecision; image-rendering:optimizeQuality; fill-rule:evenodd; clip-rule:evenodd" xmlns:xlink="http://www.w3.org/1999/xlink">
<g><path style="opacity:0.991" fill="#09205d" d="M 1999.5,935.5 C 1999.5,947.5 1999.5,959.5 1999.5,971.5C 1989.65,1031.88 1955.98,1073.04 1898.5,1095C 1855.48,1108.67 1811.82,1111 1767.5,1102C 1729.41,1094.28 1693.74,1080.45 1660.5,1060.5C 1676.5,1022.16 1692.5,983.824 1708.5,945.5C 1732.11,963.14 1758.11,976.307 1786.5,985C 1798.8,987.809 1811.13,988.475 1823.5,987C 1834.69,984.972 1841.36,978.472 1843.5,967.5C 1842.51,961.011 1839.18,956.178 1833.5,953C 1827.06,949.78 1820.39,947.113 1813.5,945C 1792.78,941.071 1772.45,935.738 1752.5,929C 1697.81,903.465 1675.31,860.631 1685,800.5C 1696.71,744.105 1729.88,706.272 1784.5,687C 1849.93,669.009 1913.26,674.676 1974.5,704C 1980.74,707.039 1986.91,710.206 1993,713.5C 1992.98,716.244 1992.31,718.911 1991,721.5C 1977.09,754.979 1962.92,788.313 1948.5,821.5C 1928.24,806.206 1905.57,796.039 1880.5,791C 1868.31,788.62 1856.31,789.286 1844.5,793C 1833.99,797.509 1830.82,805.009 1835,815.5C 1840.23,820.203 1846.07,824.037 1852.5,827C 1860.68,830.129 1869.01,832.795 1877.5,835C 1894.7,838.573 1911.7,842.906 1928.5,848C 1968.45,864.136 1992.12,893.303 1999.5,935.5 Z"/></g>
<g><path style="opacity:0.99" fill="#09205d" d="M -0.5,1096.5 C -0.5,1094.5 -0.5,1092.5 -0.5,1090.5C 22.8829,956.015 46.0496,821.348 69,686.5C 119.433,685.17 169.933,685.17 220.5,686.5C 239.816,759.261 259.316,831.927 279,904.5C 298.018,831.428 317.184,758.428 336.5,685.5C 387.833,685.5 439.167,685.5 490.5,685.5C 512.49,822.443 534.157,959.443 555.5,1096.5C 506.833,1096.5 458.167,1096.5 409.5,1096.5C 402.217,1018.12 394.384,939.788 386,861.5C 364.823,939.206 343.49,1016.87 322,1094.5C 307.388,1095.83 292.554,1096.49 277.5,1096.5C 262.594,1096.5 247.761,1096.16 233,1095.5C 211.33,1017.48 189.663,939.484 168,861.5C 160.349,939.857 152.516,1018.19 144.5,1096.5C 96.1667,1096.5 47.8333,1096.5 -0.5,1096.5 Z"/></g>
<g><path style="opacity:0.987" fill="#09205d" d="M 595.5,685.5 C 645.833,685.5 696.167,685.5 746.5,685.5C 746.5,822.5 746.5,959.5 746.5,1096.5C 696.167,1096.5 645.833,1096.5 595.5,1096.5C 595.5,959.5 595.5,822.5 595.5,685.5 Z"/></g>
<g><path style="opacity:0.992" fill="#09205d" d="M 803.5,685.5 C 852.834,685.333 902.168,685.5 951.5,686C 987.413,686.369 1022.75,691.035 1057.5,700C 1115.64,720.146 1157.14,758.313 1182,814.5C 1199.24,863.6 1199.91,912.934 1184,962.5C 1157.94,1025.56 1112.11,1066.39 1046.5,1085C 1011.24,1092.43 975.572,1096.1 939.5,1096C 894.168,1096.5 848.835,1096.67 803.5,1096.5C 803.5,959.5 803.5,822.5 803.5,685.5 Z M 950.5,812.5 C 1022.22,809.708 1053.05,843.708 1043,914.5C 1036.75,941.922 1019.91,958.922 992.5,965.5C 978.673,968.606 964.673,970.272 950.5,970.5C 950.5,917.833 950.5,865.167 950.5,812.5 Z"/></g>
<g><path style="opacity:0.991" fill="#09205d" d="M 1336.5,685.5 C 1391.5,685.5 1446.5,685.5 1501.5,685.5C 1548.55,822.361 1596.22,959.028 1644.5,1095.5C 1591.17,1096.5 1537.84,1096.83 1484.5,1096.5C 1480.67,1079.19 1476.34,1062.03 1471.5,1045C 1434.83,1044.5 1398.17,1044.33 1361.5,1044.5C 1357.67,1061.82 1353.33,1078.99 1348.5,1096C 1295.5,1096.83 1242.5,1096.67 1189.5,1095.5C 1238.53,958.75 1287.53,822.083 1336.5,685.5 Z M 1415.5,830.5 C 1426.05,868.841 1436.38,907.341 1446.5,946C 1426.49,946.833 1406.49,946.666 1386.5,945.5C 1396.64,907.275 1406.31,868.942 1415.5,830.5 Z"/></g>
<g><path style="opacity:0.985" fill="#f5ba17" d="M -0.5,1138.5 C 666.167,1138.5 1332.83,1138.5 1999.5,1138.5C 1999.5,1199.83 1999.5,1261.17 1999.5,1322.5C 1332.83,1322.5 666.167,1322.5 -0.5,1322.5C -0.5,1261.17 -0.5,1199.83 -0.5,1138.5 Z M 905.5,1171.5 C 922.631,1187.46 939.631,1203.63 956.5,1220C 967.697,1230.86 978.53,1242.03 989,1253.5C 989.5,1227.17 989.667,1200.84 989.5,1174.5C 994.833,1174.5 1000.17,1174.5 1005.5,1174.5C 1005.67,1213.17 1005.5,1251.83 1005,1290.5C 984.469,1270.3 963.636,1250.47 942.5,1231C 934.95,1223.95 927.95,1216.45 921.5,1208.5C 921.478,1234.65 921.478,1260.99 921.5,1287.5C 916.167,1287.5 910.833,1287.5 905.5,1287.5C 905.5,1248.83 905.5,1210.17 905.5,1171.5 Z M 1528.5,1290.5 C 1505.34,1268.17 1482.01,1246.01 1458.5,1224C 1453.99,1218.66 1449.32,1213.49 1444.5,1208.5C 1444.48,1234.65 1444.48,1260.99 1444.5,1287.5C 1439.17,1287.5 1433.83,1287.5 1428.5,1287.5C 1428.33,1248.83 1428.5,1210.17 1429,1171.5C 1450.86,1193.03 1473.03,1214.2 1495.5,1235C 1501.53,1240.92 1507.19,1247.09 1512.5,1253.5C 1512.52,1227.35 1512.52,1201.01 1512.5,1174.5C 1517.83,1174.5 1523.17,1174.5 1528.5,1174.5C 1528.5,1213.17 1528.5,1251.83 1528.5,1290.5 Z M 215.5,1172.5 C 227.004,1170.96 237.671,1173.13 247.5,1179C 251.016,1181.87 253.683,1185.37 255.5,1189.5C 251.316,1192.52 246.816,1195.18 242,1197.5C 235.595,1187.55 226.762,1184.71 215.5,1189C 205.922,1197.93 206.255,1206.6 216.5,1215C 223.793,1219.55 231.459,1223.55 239.5,1227C 258.052,1236.95 263.552,1251.78 256,1271.5C 248.464,1284.28 237.131,1290.61 222,1290.5C 204.376,1290.52 192.543,1282.35 186.5,1266C 190.554,1263.31 194.888,1261.14 199.5,1259.5C 207.117,1273.41 218.45,1277.58 233.5,1272C 244.459,1261.99 244.125,1252.32 232.5,1243C 221.803,1238.09 211.47,1232.43 201.5,1226C 189.351,1214.62 186.851,1201.46 194,1186.5C 199.529,1179.16 206.696,1174.5 215.5,1172.5 Z M 331.5,1172.5 C 362.249,1170.12 384.082,1182.78 397,1210.5C 406.503,1247.99 393.337,1273.83 357.5,1288C 329.069,1294.19 306.235,1285.69 289,1262.5C 276.865,1239.54 277.865,1217.2 292,1195.5C 302.48,1183.02 315.646,1175.35 331.5,1172.5 Z M 808.5,1172.5 C 833.992,1170.04 854.158,1179.04 869,1199.5C 878.77,1217.54 880.104,1236.21 873,1255.5C 858.218,1281.97 835.718,1293.14 805.5,1289C 770.347,1278.54 754.847,1255.04 759,1218.5C 766.101,1192.89 782.601,1177.56 808.5,1172.5 Z M 1059.5,1172.5 C 1068.79,1171.74 1077.79,1172.91 1086.5,1176C 1092.36,1179.03 1096.69,1183.53 1099.5,1189.5C 1095.28,1192.53 1090.78,1195.2 1086,1197.5C 1080.64,1188.41 1072.81,1185.24 1062.5,1188C 1052.65,1192.54 1050.15,1199.71 1055,1209.5C 1056.83,1211.33 1058.67,1213.17 1060.5,1215C 1069.83,1220 1079.17,1225 1088.5,1230C 1102.56,1239.9 1106.72,1253.07 1101,1269.5C 1093.8,1283.61 1082.14,1290.61 1066,1290.5C 1049.97,1290.83 1038.63,1283.83 1032,1269.5C 1031.2,1267.74 1031.37,1266.07 1032.5,1264.5C 1036.63,1262.23 1040.97,1260.57 1045.5,1259.5C 1048.78,1269.42 1055.78,1274.42 1066.5,1274.5C 1079.97,1273.86 1086.14,1266.86 1085,1253.5C 1083.23,1249.14 1080.4,1245.64 1076.5,1243C 1065.36,1237.87 1054.69,1231.87 1044.5,1225C 1035.32,1216.79 1032.15,1206.62 1035,1194.5C 1038.74,1182.22 1046.91,1174.88 1059.5,1172.5 Z M 1264.5,1172.5 C 1281.45,1170.39 1296.95,1174.05 1311,1183.5C 1311.13,1189.17 1310.8,1194.84 1310,1200.5C 1292.91,1187.3 1274.41,1184.8 1254.5,1193C 1240.49,1201.68 1233.49,1214.35 1233.5,1231C 1234.3,1254.8 1246.3,1269.13 1269.5,1274C 1284.91,1275.09 1298.41,1270.59 1310,1260.5C 1310.67,1266.83 1310.67,1273.17 1310,1279.5C 1301.89,1285.63 1292.73,1289.13 1282.5,1290C 1248.93,1292.05 1227.09,1277.21 1217,1245.5C 1211.61,1215.79 1221.78,1193.29 1247.5,1178C 1253.14,1175.68 1258.8,1173.85 1264.5,1172.5 Z M 427.5,1174.5 C 433.167,1174.5 438.833,1174.5 444.5,1174.5C 444.5,1206.83 444.5,1239.17 444.5,1271.5C 458.5,1271.5 472.5,1271.5 486.5,1271.5C 486.5,1276.83 486.5,1282.17 486.5,1287.5C 466.833,1287.5 447.167,1287.5 427.5,1287.5C 427.5,1249.83 427.5,1212.17 427.5,1174.5 Z M 503.5,1174.5 C 509.509,1174.33 515.509,1174.5 521.5,1175C 520.339,1199.09 520.173,1223.26 521,1247.5C 523.697,1268.29 535.531,1277.12 556.5,1274C 567.119,1272.05 573.952,1265.88 577,1255.5C 578.465,1228.55 578.965,1201.55 578.5,1174.5C 584.167,1174.5 589.833,1174.5 595.5,1174.5C 595.667,1201.5 595.5,1228.5 595,1255.5C 592.898,1271.89 584.065,1282.73 568.5,1288C 551.517,1292.43 535.183,1290.76 519.5,1283C 509.666,1274.83 504.5,1264.33 504,1251.5C 503.5,1225.84 503.333,1200.17 503.5,1174.5 Z M 615.5,1174.5 C 641.167,1174.5 666.833,1174.5 692.5,1174.5C 692.5,1179.5 692.5,1184.5 692.5,1189.5C 682.5,1189.5 672.5,1189.5 662.5,1189.5C 662.5,1222.17 662.5,1254.83 662.5,1287.5C 656.833,1287.5 651.167,1287.5 645.5,1287.5C 645.5,1254.83 645.5,1222.17 645.5,1189.5C 635.5,1189.5 625.5,1189.5 615.5,1189.5C 615.5,1184.5 615.5,1179.5 615.5,1174.5 Z M 712.5,1174.5 C 718.5,1174.5 724.5,1174.5 730.5,1174.5C 730.5,1212.17 730.5,1249.83 730.5,1287.5C 724.463,1287.83 718.463,1287.5 712.5,1286.5C 713.827,1249.17 713.827,1211.83 712.5,1174.5 Z M 1339.5,1174.5 C 1360.17,1174.5 1380.83,1174.5 1401.5,1174.5C 1401.5,1179.5 1401.5,1184.5 1401.5,1189.5C 1386.5,1189.5 1371.5,1189.5 1356.5,1189.5C 1356.5,1199.17 1356.5,1208.83 1356.5,1218.5C 1371.5,1218.5 1386.5,1218.5 1401.5,1218.5C 1401.5,1223.5 1401.5,1228.5 1401.5,1233.5C 1386.5,1233.5 1371.5,1233.5 1356.5,1233.5C 1356.5,1246.17 1356.5,1258.83 1356.5,1271.5C 1371.5,1271.5 1386.5,1271.5 1401.5,1271.5C 1401.5,1276.83 1401.5,1282.17 1401.5,1287.5C 1380.83,1287.5 1360.17,1287.5 1339.5,1287.5C 1339.5,1249.83 1339.5,1212.17 1339.5,1174.5 Z M 1548.5,1174.5 C 1574.5,1174.5 1600.5,1174.5 1626.5,1174.5C 1626.5,1179.5 1626.5,1184.5 1626.5,1189.5C 1616.5,1189.5 1606.5,1189.5 1596.5,1189.5C 1596.5,1222.17 1596.5,1254.83 1596.5,1287.5C 1590.5,1287.5 1584.5,1287.5 1578.5,1287.5C 1578.5,1254.83 1578.5,1222.17 1578.5,1189.5C 1568.5,1189.5 1558.5,1189.5 1548.5,1189.5C 1548.5,1184.5 1548.5,1179.5 1548.5,1174.5 Z M 1646.5,1174.5 C 1667.17,1174.5 1687.83,1174.5 1708.5,1174.5C 1708.5,1179.5 1708.5,1184.5 1708.5,1189.5C 1693.5,1189.5 1678.5,1189.5 1663.5,1189.5C 1663.5,1199.17 1663.5,1208.83 1663.5,1218.5C 1678.5,1218.5 1693.5,1218.5 1708.5,1218.5C 1708.5,1223.5 1708.5,1228.5 1708.5,1233.5C 1693.5,1233.5 1678.5,1233.5 1663.5,1233.5C 1663.5,1246.17 1663.5,1258.83 1663.5,1271.5C 1678.5,1271.5 1693.5,1271.5 1708.5,1271.5C 1708.5,1276.83 1708.5,1282.17 1708.5,1287.5C 1687.83,1287.5 1667.17,1287.5 1646.5,1287.5C 1646.5,1249.83 1646.5,1212.17 1646.5,1174.5 Z M 1735.5,1174.5 C 1745.84,1174.33 1756.17,1174.5 1766.5,1175C 1790.48,1175.99 1801.32,1188.49 1799,1212.5C 1796.18,1226.49 1787.68,1234.49 1773.5,1236.5C 1786.62,1253.24 1799.62,1270.08 1812.5,1287C 1805.83,1287.67 1799.17,1287.67 1792.5,1287C 1780.08,1270.15 1767.41,1253.49 1754.5,1237C 1753.55,1236.52 1752.55,1236.35 1751.5,1236.5C 1751.5,1253.5 1751.5,1270.5 1751.5,1287.5C 1746.17,1287.5 1740.83,1287.5 1735.5,1287.5C 1735.5,1249.83 1735.5,1212.17 1735.5,1174.5 Z"/></g>
<g><path style="opacity:0.996" fill="#f5ba17" d="M 332.5,1188.5 C 354.174,1186.41 369.674,1195.08 379,1214.5C 386.364,1236.4 380.864,1254.24 362.5,1268C 337.88,1279.72 318.047,1274.22 303,1251.5C 293.12,1226.16 299.62,1206.33 322.5,1192C 325.85,1190.51 329.184,1189.35 332.5,1188.5 Z"/></g>
<g><path style="opacity:0.997" fill="#f5ba17" d="M 809.5,1188.5 C 834.815,1186.4 851.315,1197.4 859,1221.5C 862.245,1249.87 850.078,1267.37 822.5,1274C 794.392,1273.73 778.726,1259.56 775.5,1231.5C 777.259,1209.43 788.593,1195.09 809.5,1188.5 Z"/></g>
<g><path style="opacity:0.984" fill="#f4ba17" d="M 1752.5,1189.5 C 1760.47,1188.87 1768.13,1190.03 1775.5,1193C 1779.83,1196.64 1781.83,1201.31 1781.5,1207C 1782.01,1213.18 1779.67,1217.84 1774.5,1221C 1767.28,1222.82 1759.95,1223.65 1752.5,1223.5C 1752.5,1212.17 1752.5,1200.83 1752.5,1189.5 Z"/></g>
</svg>
